<?xml version="1.0" encoding="utf-8"?>
<svg xmlns="http://www.w3.org/2000/svg" viewBox="0 0 1920 1080">
  <g>
    <path d="M 874.578 235.965 L 899.506 235.965 L 901.421 237.886 L 905.258 237.886 L 907.173 239.806 L 909.091 239.806 L 911.01 241.727 L 912.927 241.727 L 914.843 243.647 L 916.762 243.647 L 918.679 245.568 L 920.595 245.568 L 940.728 265.736 L 940.728 267.656 L 942.645 269.577 L 942.645 271.498 L 944.562 273.417 L 944.562 277.26 L 946.48 279.18 L 946.48 283.022 L 948.397 284.942 L 948.397 311.829 L 946.48 313.75 L 946.48 315.673 L 944.562 317.593 L 944.562 323.353 L 940.728 327.195 L 940.728 329.117 L 936.893 332.958 L 936.893 334.877 L 933.058 338.719 L 933.058 340.641 L 928.264 345.442 L 926.348 345.442 L 920.595 351.204 L 918.679 351.204 L 916.762 353.124 L 914.843 353.124 L 912.927 355.045 L 909.091 355.045 L 907.173 356.966 L 903.34 356.966 L 901.421 358.886 L 893.752 358.886 L 891.836 360.807 L 882.248 360.807 L 880.33 358.886 L 870.746 358.886 L 868.826 356.966 L 864.994 356.966 L 863.074 355.045 L 859.242 355.045 L 855.405 351.204 L 853.49 351.204 L 851.572 349.283 L 849.653 349.283 L 837.191 336.798 L 837.191 334.877 L 833.357 331.038 L 833.357 329.117 L 831.439 327.195 L 831.439 325.274 L 829.522 323.353 L 829.522 319.514 L 827.605 317.593 L 827.605 313.75 L 825.687 311.829 L 825.687 284.942 L 827.605 283.022 L 827.605 277.26 L 829.522 275.337 L 829.522 273.417 L 831.439 271.498 L 831.439 269.577 L 833.357 267.656 L 833.357 265.736 L 837.191 261.893 L 837.191 259.974 L 849.653 247.489 L 851.572 247.489 L 855.405 243.647 L 857.324 243.647 L 859.242 241.727 L 861.157 241.727 L 863.074 239.806 L 866.909 239.806 L 868.826 237.886 L 872.663 237.886 L 874.578 235.965 Z M 879.18 252.488 L 877.366 254.305 L 873.739 254.305 L 871.925 257.939 L 868.297 257.939 L 866.483 259.756 L 864.669 259.756 L 862.855 261.573 L 861.041 261.573 L 851.971 268.841 L 851.971 270.658 L 848.343 276.109 L 848.343 277.927 L 846.529 279.744 L 846.529 281.561 L 844.715 283.378 L 844.715 287.012 L 842.902 288.829 L 842.902 308.817 L 844.715 310.634 L 844.715 312.451 L 846.529 314.268 L 846.529 317.902 L 848.343 319.719 L 848.343 321.536 L 851.971 325.17 L 851.971 326.987 L 857.413 332.439 L 859.227 332.439 L 862.855 336.073 L 864.669 336.073 L 866.483 337.89 L 868.297 337.89 L 870.111 339.707 L 873.739 339.707 L 877.366 341.524 L 897.32 341.524 L 899.134 339.707 L 900.948 339.707 L 902.762 337.89 L 906.39 337.89 L 911.831 334.256 L 913.645 334.256 L 922.715 323.353 L 922.715 321.536 L 924.529 319.719 L 924.529 317.902 L 928.157 316.085 L 928.157 314.268 L 929.971 312.451 L 929.971 308.817 L 931.785 305.183 L 931.785 290.646 L 929.971 288.829 L 929.971 285.195 L 928.157 283.378 L 928.157 279.744 L 922.715 276.109 L 922.715 274.292 L 917.273 267.024 L 917.273 265.207 C 917.273 263.996 916.669 263.996 915.459 265.207 L 911.831 261.573 L 908.204 261.573 L 904.576 257.939 L 900.948 257.939 L 899.134 254.305 L 895.506 254.305 L 893.692 252.488 L 879.18 252.488 Z" style="fill: rgb(227, 107, 61);"/>
    <path d="M 1081.65 355.045 L 1091.24 355.045 L 1093.16 356.966 L 1108.5 356.966 L 1110.41 358.886 L 1114.25 358.886 L 1116.16 360.807 L 1121.92 360.807 L 1123.83 362.727 L 1127.67 362.727 L 1129.59 364.648 L 1133.42 364.648 L 1135.34 366.569 L 1137.25 366.569 L 1139.17 368.489 L 1141.09 368.489 L 1143.01 370.41 L 1146.84 370.41 L 1150.67 374.251 L 1152.59 374.251 L 1156.43 378.093 L 1158.35 378.093 L 1164.1 383.855 L 1166.01 383.855 L 1193.82 411.705 L 1193.82 413.625 L 1199.57 419.386 L 1199.57 421.308 L 1205.32 427.07 L 1205.32 428.989 L 1207.24 430.911 L 1207.24 432.83 L 1211.07 436.673 L 1211.07 438.594 L 1212.99 440.515 L 1212.99 442.433 L 1214.91 444.356 L 1214.91 446.275 L 1216.83 448.197 L 1216.83 450.118 L 1218.74 452.037 L 1218.74 453.959 L 1220.66 455.878 L 1220.66 457.8 L 1222.58 459.719 L 1222.58 463.562 L 1224.49 465.481 L 1224.49 467.404 L 1226.41 469.322 L 1226.41 471.245 L 1228.33 473.166 L 1228.33 477.007 L 1230.25 478.926 L 1230.25 480.848 L 1232.16 482.767 L 1232.16 486.61 L 1234.08 488.529 L 1234.08 492.37 L 1236 494.293 L 1236 498.134 L 1237.91 500.055 L 1237.91 503.896 L 1239.83 505.815 L 1239.83 511.578 L 1241.75 513.499 L 1241.75 517.34 L 1243.67 519.259 L 1243.67 526.944 L 1245.59 528.862 L 1245.59 532.704 L 1247.5 534.626 L 1247.5 546.148 L 1249.42 548.071 L 1249.42 555.751 L 1251.34 557.674 L 1251.34 582.64 L 1248.46 585.522 L 1246.54 585.522 L 1244.63 587.443 L 680.929 587.443 L 679.012 585.522 L 677.094 585.522 L 672.3 580.722 L 672.3 569.196 L 674.217 567.277 L 674.217 563.436 L 676.135 561.515 L 676.135 559.593 L 678.052 557.674 L 678.052 553.833 L 679.969 551.91 L 679.969 549.991 L 681.887 548.071 L 681.887 546.148 L 683.804 544.229 L 683.804 542.307 L 685.721 540.388 L 685.721 538.466 L 687.639 536.547 L 687.639 534.626 L 689.556 532.704 L 689.556 530.785 L 693.391 526.944 L 693.391 525.023 L 695.308 523.102 L 695.308 521.182 L 699.143 517.34 L 699.143 515.418 L 702.977 511.578 L 702.977 509.656 L 706.812 505.815 L 706.812 503.896 L 715.439 495.252 C 717.038 495.572 717.997 495.252 718.316 494.293 C 717.997 492.691 718.317 491.731 719.276 491.411 C 720.873 491.731 721.832 491.411 722.151 490.451 C 721.832 488.85 722.151 487.889 723.109 487.569 L 725.028 487.569 L 736.53 476.046 L 738.449 476.046 L 742.282 472.204 L 744.201 472.204 L 746.118 470.284 L 748.034 470.284 L 749.951 468.363 L 751.87 468.363 L 753.788 466.442 L 755.703 466.442 L 757.623 464.522 L 761.455 464.522 L 763.373 462.601 L 767.209 462.601 L 769.125 460.68 L 772.961 460.68 L 774.877 458.76 L 797.887 458.76 L 799.804 460.68 L 807.472 460.68 L 809.389 462.601 L 815.141 462.601 L 817.06 464.522 L 820.893 464.522 L 822.81 466.442 L 824.729 466.442 L 826.647 468.363 L 830.481 468.363 L 832.399 470.284 L 834.314 470.284 L 836.232 472.204 L 838.151 472.204 L 840.068 474.125 L 841.984 474.125 L 843.903 476.046 L 845.82 476.046 L 847.736 477.966 L 849.653 477.966 L 853.49 481.807 L 855.405 481.807 L 857.324 483.728 L 859.242 483.728 L 861.157 485.649 L 863.074 485.649 L 868.826 491.411 L 870.746 491.411 L 872.663 493.331 L 874.578 493.331 L 878.415 497.173 L 880.33 497.173 L 882.248 499.093 L 884.167 499.093 L 888 502.935 L 889.919 502.935 L 891.836 504.855 L 893.752 502.935 L 895.669 502.935 L 902.381 496.211 L 902.381 494.293 L 911.967 484.689 L 911.967 482.767 L 923.472 471.245 L 923.472 469.322 L 934.976 457.8 L 934.976 455.878 L 942.645 448.197 L 942.645 446.275 L 959.901 428.989 L 959.901 427.07 L 973.322 413.625 L 973.322 411.705 L 985.786 399.22 L 987.703 399.22 L 995.373 391.537 L 997.29 391.537 L 1006.88 381.934 L 1008.79 381.934 L 1012.63 378.093 L 1014.55 378.093 L 1018.38 374.251 L 1020.3 374.251 L 1022.22 372.331 L 1024.13 372.331 L 1026.05 370.41 L 1027.97 370.41 L 1031.8 366.569 L 1035.64 366.569 L 1037.55 364.648 L 1039.47 364.648 L 1041.39 362.727 L 1045.22 362.727 L 1047.14 360.807 L 1050.98 360.807 L 1052.89 358.886 L 1056.73 358.886 L 1058.64 356.966 L 1079.74 356.966 L 1081.65 355.045 Z M 1064.2 374.231 L 1062.39 376.048 L 1056.95 376.048 L 1055.13 377.866 L 1051.51 377.866 L 1049.69 379.683 L 1047.88 379.683 L 1046.06 381.5 L 1040.62 381.5 L 1038.81 383.317 L 1036.99 383.317 L 1035.18 385.134 L 1033.37 385.134 L 1031.55 386.951 L 1029.74 386.951 L 1026.11 392.402 L 1024.3 392.402 L 1017.04 399.67 L 1015.23 399.67 C 1014.02 399.67 1013.41 400.276 1013.41 401.487 C 1013.41 402.699 1012.81 403.305 1011.6 403.305 L 1002.53 410.573 L 1000.72 410.573 L 977.133 434.195 L 977.133 436.012 L 962.622 452.365 L 962.622 454.183 L 953.552 461.451 L 953.552 463.268 L 948.11 468.719 L 948.11 470.536 L 937.227 483.256 L 937.227 485.073 L 924.529 495.975 L 924.529 497.792 C 924.529 499.004 923.924 499.609 922.715 499.609 C 921.506 499.609 920.901 500.215 920.901 501.426 L 911.831 512.329 L 911.831 515.963 L 917.273 519.597 L 919.087 519.597 L 922.715 523.231 L 924.529 523.231 L 926.343 526.865 L 928.157 526.865 L 931.785 530.5 L 933.599 530.5 L 935.413 532.317 L 937.227 532.317 L 939.041 534.134 L 940.855 534.134 L 944.482 535.951 L 946.296 535.951 L 948.11 537.768 L 949.924 537.768 L 951.738 539.585 L 953.552 539.585 L 955.366 541.402 L 957.18 541.402 L 958.994 543.219 L 960.808 543.219 L 962.622 545.036 L 964.436 545.036 L 966.25 546.853 L 968.064 546.853 L 969.878 548.67 L 971.692 548.67 L 973.506 550.487 L 975.319 550.487 L 978.947 552.304 L 980.761 552.304 L 982.575 554.122 L 986.203 554.122 L 988.017 555.939 L 991.645 555.939 L 993.459 557.756 L 997.087 557.756 L 998.901 561.39 L 1002.53 561.39 L 1004.34 563.207 L 1007.97 563.207 L 1011.6 565.024 L 1017.04 565.024 L 1018.85 566.841 L 1027.92 566.841 L 1029.74 568.658 L 1229.27 568.658 L 1232.9 565.024 L 1232.9 555.939 L 1231.09 554.122 L 1231.09 541.402 L 1227.46 539.585 L 1227.46 534.134 L 1225.64 532.317 L 1225.64 526.865 L 1223.83 525.048 L 1223.83 519.597 L 1222.02 517.78 L 1222.02 512.329 L 1220.2 510.512 L 1220.2 505.061 L 1218.39 503.243 L 1218.39 499.609 L 1216.57 497.792 L 1216.57 494.158 L 1214.76 492.341 L 1214.76 488.707 L 1212.95 486.89 L 1212.95 485.073 L 1211.13 483.256 L 1211.13 479.622 L 1209.32 477.804 L 1209.32 475.987 L 1207.5 472.353 L 1207.5 470.536 L 1205.69 468.719 L 1205.69 465.085 L 1203.88 463.268 L 1203.88 461.451 L 1202.06 459.634 L 1202.06 457.817 L 1200.25 456 L 1200.25 454.183 L 1198.43 452.365 L 1198.43 450.548 L 1196.62 448.731 L 1196.62 446.914 L 1191.18 443.28 L 1191.18 439.646 L 1187.55 436.012 L 1187.55 434.195 L 1183.92 430.561 L 1183.92 428.744 L 1178.48 423.292 L 1178.48 421.475 L 1154.9 397.853 L 1153.09 397.853 L 1147.64 392.402 L 1145.83 392.402 L 1140.39 386.951 L 1136.76 386.951 L 1134.95 385.134 L 1133.13 385.134 L 1131.32 383.317 L 1129.51 383.317 L 1127.69 381.5 L 1125.88 381.5 L 1124.06 379.683 L 1120.43 379.683 L 1118.62 377.866 L 1113.18 377.866 L 1109.55 376.048 L 1102.3 376.048 L 1100.48 374.231 L 1064.2 374.231 Z M 772.158 477.804 L 770.344 479.622 L 768.53 479.622 L 766.716 481.439 L 764.902 481.439 L 763.088 483.256 L 759.46 483.256 L 757.646 485.073 L 755.832 485.073 L 750.39 490.524 L 748.576 490.524 L 744.948 495.975 L 743.135 495.975 L 721.367 515.963 L 721.367 517.78 L 715.925 523.231 L 715.925 525.048 L 712.297 528.683 L 712.297 530.5 L 710.484 532.317 L 710.484 534.134 L 706.856 537.768 L 706.856 539.585 L 705.042 541.402 L 705.042 545.036 L 703.228 546.853 L 703.228 548.67 L 701.414 550.487 L 701.414 552.304 L 699.6 554.122 L 699.6 555.939 L 697.786 557.756 L 697.786 559.573 L 695.972 561.39 L 695.972 566.841 L 695.972 568.658 L 957.18 568.658 L 957.18 566.841 L 957.18 563.207 C 957.18 561.995 956.575 561.995 955.366 563.207 L 953.552 561.39 L 951.738 561.39 L 949.924 557.756 L 948.11 557.756 L 946.296 555.939 L 944.482 555.939 L 940.855 554.122 L 939.041 554.122 L 937.227 552.304 L 935.413 552.304 L 931.785 548.67 L 929.971 548.67 L 928.157 546.853 L 926.343 546.853 L 924.529 545.036 L 922.715 545.036 L 920.901 543.219 L 919.087 543.219 L 917.273 541.402 L 915.459 541.402 L 911.831 537.768 L 908.204 537.768 L 906.39 535.951 L 904.576 535.951 L 900.948 532.317 L 899.134 532.317 L 895.506 528.683 L 893.692 528.683 L 890.064 523.231 L 888.25 523.231 L 884.622 519.597 L 882.808 519.597 L 880.994 517.78 L 879.18 517.78 L 873.739 514.146 L 871.925 514.146 L 870.111 512.329 L 868.297 512.329 L 866.483 510.512 L 864.669 510.512 L 861.041 506.878 L 859.227 506.878 L 855.599 503.243 L 853.785 503.243 L 851.971 501.426 L 850.157 501.426 L 846.529 497.792 L 844.715 497.792 L 841.088 495.975 L 839.274 495.975 L 837.46 494.158 L 835.646 494.158 L 833.832 490.524 L 832.018 490.524 L 830.204 488.707 L 828.39 488.707 L 826.576 486.89 L 824.762 486.89 L 822.948 485.073 L 819.32 485.073 L 817.506 483.256 L 815.692 483.256 L 813.878 481.439 L 810.25 481.439 L 806.623 479.622 L 802.995 479.622 L 801.181 477.804 L 772.158 477.804 Z" style="fill: rgb(227, 107, 61);"/>
  </g>
  <g>
    <path d="M 694.35 693.078 L 725.028 693.078 L 729.82 697.881 L 729.82 724.77 L 725.028 729.571 L 694.35 729.571 L 689.556 724.77 L 689.556 697.881 L 694.35 693.078 Z" style="fill: rgb(223, 223, 223);"/>
    <path d="M 548.631 706.523 L 579.31 706.523 L 584.102 711.326 L 584.102 755.5 L 585.062 756.46 C 586.659 756.78 587.618 756.46 587.937 755.5 C 587.618 753.899 587.937 752.938 588.895 752.618 L 590.814 752.618 L 594.649 748.777 L 596.564 748.777 L 598.483 746.857 L 600.401 746.857 L 602.316 744.936 L 608.07 744.936 L 609.986 743.015 L 619.574 743.015 L 621.49 744.936 L 629.159 744.936 L 631.078 746.857 L 634.911 746.857 L 636.828 748.777 L 638.747 748.777 L 642.58 752.618 L 644.499 752.618 L 655.044 763.183 L 655.044 765.104 L 658.879 768.945 L 658.879 772.784 L 660.796 774.705 L 660.796 776.627 L 662.713 778.548 L 662.713 784.31 L 664.631 786.229 L 664.631 874.579 C 664.311 875.539 663.352 875.86 661.754 875.54 L 659.838 877.46 L 631.078 877.46 L 629.159 875.54 C 627.561 875.86 626.603 875.539 626.284 874.579 L 626.284 797.755 L 624.366 795.834 L 624.366 791.993 L 620.532 788.151 C 620.851 786.55 620.532 785.589 619.574 785.269 L 617.657 785.269 L 615.738 783.349 L 613.822 783.349 L 611.905 781.428 L 598.483 781.428 L 596.564 783.349 L 594.649 783.349 L 587.937 790.072 L 587.937 791.993 L 586.02 793.911 L 586.02 797.755 L 584.102 799.673 L 584.102 874.579 L 581.227 877.46 L 548.631 877.46 L 545.756 874.579 L 545.756 872.658 L 543.838 870.739 L 543.838 713.244 L 545.756 711.326 L 545.756 709.405 L 548.631 706.523 Z" style="fill: rgb(223, 223, 223);"/>
    <path d="M 757.623 706.523 L 790.217 706.523 L 793.092 709.405 L 793.092 711.326 L 795.01 713.244 L 795.01 870.739 L 793.092 872.658 C 793.412 874.259 793.092 875.22 792.135 875.54 L 790.217 875.54 L 788.298 877.46 L 759.54 877.46 L 754.746 872.658 L 754.746 711.326 L 756.663 709.405 C 756.344 707.803 756.664 706.843 757.623 706.523 Z" style="fill: rgb(223, 223, 223);"/>
    <path d="M 822.81 706.523 L 853.49 706.523 L 858.282 711.326 L 858.282 872.658 L 853.49 877.46 L 824.729 877.46 L 822.81 875.54 C 821.213 875.86 820.254 875.539 819.935 874.579 L 819.935 709.405 L 822.81 706.523 Z" style="fill: rgb(223, 223, 223);"/>
    <path d="M 494.947 708.444 L 498.782 708.444 L 503.574 713.244 L 503.574 747.816 L 504.534 748.777 L 521.79 748.777 L 523.705 750.698 C 525.304 750.378 526.263 750.698 526.582 751.659 L 526.582 753.578 L 528.499 755.5 L 528.499 780.467 L 526.582 782.389 C 526.901 783.99 526.582 784.95 525.624 785.269 L 504.534 785.269 L 503.574 786.229 L 503.574 872.658 L 498.782 877.46 L 468.104 877.46 L 463.31 872.658 L 463.31 788.151 L 460.435 785.269 L 450.846 785.269 L 447.971 782.389 L 447.971 753.578 L 450.846 750.698 L 452.765 750.698 L 454.681 748.777 L 462.352 748.777 L 463.31 747.816 L 463.31 722.849 L 468.104 718.047 L 470.02 718.047 L 471.937 716.126 L 475.772 716.126 L 477.691 714.206 L 481.526 714.206 L 483.441 712.285 L 487.278 712.285 L 489.193 710.364 L 493.03 710.364 L 494.947 708.444 Z" style="fill: rgb(223, 223, 223);"/>
    <path d="M 29.033 723.809 L 132.57 723.809 L 135.445 726.689 L 135.445 753.578 L 133.527 755.5 C 133.847 757.101 133.527 758.061 132.57 758.38 L 130.652 758.38 L 128.735 760.301 L 67.38 760.301 L 66.421 761.26 L 66.421 790.072 L 67.38 791.031 L 115.312 791.031 L 118.189 793.911 L 118.189 822.723 L 115.312 825.603 L 67.38 825.603 L 66.421 826.562 L 66.421 874.579 L 63.545 877.46 L 29.033 877.46 L 26.156 874.579 L 26.156 726.689 L 29.033 723.809 Z" style="fill: rgb(223, 223, 223);"/>
    <path d="M 1083.57 723.809 L 1125.75 723.809 L 1126.71 724.77 L 1126.71 726.689 L 1128.63 728.611 L 1128.63 732.453 L 1130.54 734.371 L 1130.54 740.133 L 1132.46 742.056 L 1132.46 745.897 L 1134.38 747.816 L 1134.38 753.578 L 1136.3 755.5 L 1136.3 759.34 L 1138.21 761.26 L 1138.21 765.104 L 1140.13 767.022 L 1140.13 772.784 L 1142.05 774.705 L 1142.05 778.548 L 1143.97 780.467 L 1143.97 784.31 L 1145.88 786.229 L 1145.88 791.993 L 1147.8 793.911 L 1147.8 797.755 L 1149.72 799.673 L 1149.72 803.516 L 1151.63 805.437 L 1151.63 809.278 L 1153.55 811.199 L 1153.55 816.961 L 1154.51 817.92 C 1156.11 818.24 1157.07 817.92 1157.39 816.961 L 1157.39 813.118 L 1159.3 811.199 L 1159.3 805.437 L 1161.22 803.516 L 1161.22 799.673 L 1163.14 797.755 L 1163.14 791.993 L 1165.06 790.072 L 1165.06 786.229 L 1166.97 784.31 L 1166.97 780.467 L 1168.89 778.548 L 1168.89 772.784 L 1170.81 770.866 L 1170.81 767.022 L 1172.73 765.104 L 1172.73 761.26 L 1174.64 759.34 L 1174.64 755.5 L 1176.56 753.578 L 1176.56 749.738 L 1178.48 747.816 L 1178.48 742.056 L 1180.39 740.133 L 1180.39 736.294 L 1182.31 734.371 L 1182.31 730.532 L 1184.23 728.611 L 1184.23 726.689 L 1187.11 723.809 L 1227.37 723.809 L 1230.25 726.689 L 1230.25 738.215 L 1232.16 740.133 L 1232.16 759.34 L 1234.08 761.26 L 1234.08 778.548 L 1236 780.467 L 1236 797.755 L 1237.91 799.673 L 1237.91 815.04 L 1239.83 816.961 L 1239.83 834.245 L 1241.75 836.167 L 1241.75 853.451 L 1243.67 855.374 L 1243.67 876.501 L 1242.71 877.46 L 1208.2 877.46 L 1205.32 874.579 L 1205.32 864.977 L 1203.4 863.056 L 1203.4 847.69 L 1201.49 845.769 L 1201.49 830.406 L 1199.57 828.485 L 1199.57 815.04 L 1197.65 813.118 L 1197.65 799.673 L 1196.69 798.714 L 1193.82 801.596 L 1193.82 805.437 L 1191.9 807.356 L 1191.9 813.118 L 1189.98 815.04 L 1189.98 818.882 L 1188.06 820.8 L 1188.06 826.562 L 1186.15 828.485 L 1186.15 832.326 L 1184.23 834.245 L 1184.23 838.088 L 1182.31 840.007 L 1182.31 845.769 L 1180.39 847.69 L 1180.39 851.533 L 1178.48 853.451 L 1178.48 859.213 L 1176.56 861.134 L 1176.56 864.977 L 1174.64 866.896 L 1174.64 870.739 L 1172.73 872.658 L 1172.73 874.579 L 1169.85 877.46 L 1141.09 877.46 L 1138.21 874.579 L 1138.21 872.658 L 1136.3 870.739 L 1136.3 866.896 L 1134.38 864.977 L 1134.38 861.134 L 1132.46 859.213 L 1132.46 853.451 L 1130.54 851.533 L 1130.54 847.69 L 1128.63 845.769 L 1128.63 840.007 L 1126.71 838.088 L 1126.71 832.326 L 1124.79 830.406 L 1124.79 826.562 L 1122.88 824.644 L 1122.88 818.882 L 1120.96 816.961 L 1120.96 813.118 L 1119.04 811.199 L 1119.04 805.437 L 1117.12 803.516 L 1117.12 799.673 L 1116.16 798.714 C 1114.57 798.394 1113.61 798.714 1113.29 799.673 L 1113.29 813.118 L 1111.37 815.04 L 1111.37 828.485 L 1109.45 830.406 L 1109.45 845.769 L 1107.54 847.69 L 1107.54 863.056 L 1105.62 864.977 L 1105.62 874.579 L 1102.74 877.46 L 1068.23 877.46 L 1067.27 876.501 L 1067.27 874.579 L 1065.36 872.658 L 1067.27 870.739 L 1067.27 853.451 L 1069.19 851.533 L 1069.19 836.167 L 1071.11 834.245 L 1071.11 816.961 L 1073.02 815.04 L 1073.02 799.673 L 1074.94 797.755 L 1074.94 780.467 L 1076.86 778.548 L 1076.86 763.183 L 1078.78 761.26 L 1078.78 743.976 L 1080.69 742.056 L 1080.69 728.611 L 1082.61 726.689 C 1082.29 725.089 1082.61 724.129 1083.57 723.809 Z" style="fill: rgb(223, 223, 223);"/>
    <path d="M 205.429 743.015 L 218.85 743.015 L 220.767 744.936 L 230.354 744.936 L 232.271 746.857 L 238.023 746.857 L 239.941 748.777 L 241.856 748.777 L 243.775 750.698 L 245.691 750.698 L 247.61 752.618 L 249.527 752.618 L 253.362 756.46 L 255.278 756.46 L 269.659 770.866 L 269.659 772.784 L 273.493 776.627 L 273.493 778.548 L 275.411 780.467 L 275.411 782.389 L 277.328 784.31 L 277.328 788.151 L 279.245 790.072 L 279.245 793.911 L 281.163 795.834 L 281.163 809.278 L 283.08 811.199 L 283.08 815.04 L 281.163 816.961 L 281.163 826.562 L 279.245 828.485 L 279.245 834.245 L 277.328 836.167 L 277.328 838.088 L 275.411 840.007 L 275.411 841.929 L 273.493 843.85 L 273.493 845.769 L 271.576 847.69 L 271.576 849.612 L 253.362 867.857 L 251.445 867.857 L 247.61 871.698 L 245.691 871.698 L 243.775 873.619 L 241.856 873.619 L 239.941 875.54 L 236.104 875.54 L 234.189 877.46 L 230.354 877.46 L 228.437 879.381 L 199.675 879.381 L 197.757 877.46 L 193.925 877.46 L 192.007 875.54 L 188.171 875.54 L 186.253 873.619 L 184.338 873.619 L 182.421 871.698 L 180.503 871.698 L 178.586 869.778 L 176.667 869.778 L 168.999 862.095 L 167.082 862.095 L 160.37 855.374 L 160.37 853.451 L 156.536 849.612 L 156.536 847.69 L 152.701 843.85 L 152.701 840.007 L 150.784 838.088 L 150.784 836.167 L 148.866 834.245 L 148.866 830.406 L 146.949 828.485 L 146.949 816.961 L 145.031 815.04 L 145.031 809.278 L 146.949 807.356 L 146.949 795.834 L 148.866 793.911 L 148.866 788.151 L 150.784 786.229 L 150.784 784.31 L 152.701 782.389 L 152.701 780.467 L 154.618 778.548 L 154.618 776.627 L 156.536 774.705 L 156.536 772.784 L 172.834 756.46 L 174.749 756.46 L 178.586 752.618 L 180.503 752.618 L 182.421 750.698 L 184.338 750.698 L 186.253 748.777 L 188.171 748.777 L 190.088 746.857 L 193.925 746.857 L 195.842 744.936 L 203.511 744.936 L 205.429 743.015 Z M 206.207 779.438 L 204.393 781.256 L 200.765 781.256 L 198.951 783.073 L 197.137 783.073 L 189.881 792.158 L 189.881 793.975 L 188.067 795.792 L 188.067 797.609 L 184.439 799.426 L 184.439 806.695 L 182.626 808.512 L 182.626 815.78 L 184.439 817.597 L 184.439 824.865 L 188.067 826.682 L 188.067 828.499 L 191.695 832.134 L 191.695 833.951 L 195.323 839.402 L 197.137 839.402 L 198.951 841.219 L 200.765 841.219 L 204.393 843.036 L 211.649 843.036 L 213.463 844.853 L 215.277 844.853 L 217.09 843.036 L 222.532 843.036 L 224.346 841.219 L 227.974 841.219 L 238.858 830.316 L 238.858 828.499 L 240.672 826.682 L 240.672 821.231 L 242.486 819.414 L 242.486 803.06 L 240.672 801.243 L 240.672 797.609 L 238.858 795.792 L 238.858 793.975 L 235.23 790.341 L 235.23 788.524 L 231.602 784.89 L 229.788 784.89 L 226.16 781.256 L 224.346 781.256 L 222.532 779.438 L 206.207 779.438 Z" style="fill: rgb(223, 223, 223);"/>
    <path d="M 358.814 743.015 L 372.235 743.015 L 374.155 744.936 L 383.741 744.936 L 385.659 746.857 L 389.493 746.857 L 391.409 748.777 L 395.243 748.777 L 397.163 750.698 L 399.08 750.698 L 402.915 754.539 L 404.83 754.539 L 410.584 760.301 L 412.501 760.301 L 419.211 767.022 L 419.211 768.945 L 424.963 774.705 L 424.963 776.627 L 426.88 778.548 L 426.88 780.467 L 428.798 782.389 L 428.798 784.31 L 430.715 786.229 L 430.715 791.993 L 432.632 793.911 L 432.632 797.755 L 434.55 799.673 L 434.55 822.723 L 432.632 824.644 L 432.632 830.406 L 430.715 832.326 L 430.715 836.167 L 428.798 838.088 L 428.798 840.007 L 426.88 841.929 L 426.88 843.85 L 424.963 845.769 L 424.963 847.69 L 423.046 849.612 L 423.046 851.533 L 408.665 865.937 L 406.749 865.937 L 400.995 871.698 L 399.08 871.698 L 397.163 873.619 L 393.328 873.619 L 391.409 875.54 L 389.493 875.54 L 387.576 877.46 L 381.822 877.46 L 379.907 879.381 L 353.064 879.381 L 351.145 877.46 L 345.393 877.46 L 343.477 875.54 L 341.558 875.54 L 339.642 873.619 L 337.725 873.619 L 335.808 871.698 L 333.89 871.698 L 331.971 869.778 L 330.056 869.778 L 326.221 865.937 L 324.304 865.937 L 311.84 853.451 L 311.84 851.533 L 308.005 847.69 L 308.005 845.769 L 306.088 843.85 L 306.088 841.929 L 304.171 840.007 L 304.171 838.088 L 302.253 836.167 L 302.253 832.326 L 300.336 830.406 L 300.336 824.644 L 298.419 822.723 L 298.419 801.596 L 300.336 799.673 L 300.336 791.993 L 302.253 790.072 L 302.253 786.229 L 304.171 784.31 L 304.171 782.389 L 306.088 780.467 L 306.088 778.548 L 309.923 774.705 L 309.923 772.784 L 315.675 767.022 L 315.675 765.104 L 320.469 760.301 L 322.385 760.301 L 328.137 754.539 L 330.056 754.539 L 331.971 752.618 L 333.89 752.618 L 337.725 748.777 L 341.558 748.777 L 343.477 746.857 L 347.312 746.857 L 349.229 744.936 L 356.898 744.936 L 358.814 743.015 Z M 356.764 779.438 L 354.95 781.256 L 353.136 781.256 L 340.439 793.975 L 340.439 795.792 L 338.625 797.609 L 338.625 801.243 L 336.811 803.06 L 336.811 819.414 L 338.625 821.231 L 338.625 824.865 L 340.439 826.682 L 340.439 828.499 L 342.253 830.316 L 342.253 832.134 L 349.508 839.402 L 351.322 839.402 L 353.136 841.219 L 354.95 841.219 L 356.764 843.036 L 362.206 843.036 L 364.02 844.853 L 367.648 844.853 L 369.462 843.036 L 376.718 843.036 L 378.532 841.219 L 380.346 841.219 L 382.159 839.402 L 383.973 839.402 L 389.415 833.951 L 389.415 832.134 L 393.043 828.499 L 393.043 824.865 L 394.857 823.048 L 394.857 815.78 L 396.671 813.963 L 396.671 810.329 L 394.857 808.512 L 394.857 799.426 L 393.043 797.609 L 393.043 795.792 L 391.229 793.975 L 391.229 792.158 L 380.346 781.256 L 378.532 781.256 L 376.718 779.438 L 356.764 779.438 Z" style="fill: rgb(223, 223, 223);"/>
    <path d="M 918.679 743.015 L 943.604 743.015 L 945.522 744.936 L 949.356 744.936 L 951.272 746.857 L 955.109 746.857 L 958.943 750.698 L 960.861 750.698 L 964.693 754.539 L 966.613 754.539 L 975.24 763.183 L 975.24 768.945 L 974.282 769.904 L 972.365 769.904 L 957.026 785.269 L 953.191 785.269 L 951.272 783.349 L 949.356 783.349 L 943.604 777.587 L 939.768 777.587 L 937.851 775.666 L 926.348 775.666 L 921.554 780.467 L 921.554 784.31 L 926.348 789.111 L 932.1 789.111 L 934.018 791.031 L 939.768 791.031 L 941.685 792.952 L 945.522 792.952 L 947.439 794.873 L 949.356 794.873 L 951.272 796.793 L 953.191 796.793 L 955.109 798.714 L 957.026 798.714 L 958.943 800.635 L 960.861 800.635 L 962.778 802.555 L 964.693 802.555 L 975.24 813.118 L 975.24 815.04 L 977.157 816.961 L 977.157 818.882 L 979.074 820.8 L 979.074 824.644 L 980.992 826.562 L 980.992 847.69 L 979.074 849.612 L 979.074 851.533 L 977.157 853.451 L 977.157 855.374 L 975.24 857.295 L 975.24 859.213 L 971.405 863.056 C 971.724 864.657 971.405 865.617 970.447 865.937 L 968.53 865.937 L 962.778 871.698 L 960.861 871.698 L 958.943 873.619 L 957.026 873.619 L 955.109 875.54 L 951.272 875.54 L 949.356 877.46 L 945.522 877.46 L 943.604 879.381 L 912.927 879.381 L 911.01 877.46 L 905.258 877.46 L 903.34 875.54 L 901.421 875.54 L 899.506 873.619 L 897.588 873.619 L 895.669 871.698 L 893.752 871.698 L 889.919 867.857 L 888 867.857 L 879.373 859.213 L 879.373 857.295 L 877.455 855.374 L 877.455 851.533 L 879.373 849.612 L 879.373 847.69 L 893.752 833.286 L 899.506 833.286 L 903.34 837.127 L 905.258 837.127 L 911.01 842.889 L 912.927 842.889 L 914.843 844.809 L 918.679 844.809 L 920.595 846.73 L 930.183 846.73 L 932.1 844.809 L 937.851 844.809 L 940.728 841.929 L 940.728 834.245 L 935.935 829.444 L 934.018 829.444 L 932.1 827.524 L 926.348 827.524 L 924.431 825.603 L 918.679 825.603 L 916.762 823.682 L 914.843 823.682 L 912.927 821.762 L 911.01 821.762 L 909.091 819.841 L 907.173 819.841 L 905.258 817.92 L 903.34 817.92 L 901.421 816 L 899.506 816 L 888.959 805.437 L 888.959 803.516 L 887.042 801.596 L 887.042 799.673 L 885.125 797.755 L 885.125 793.911 L 883.207 791.993 L 883.207 772.784 L 885.125 770.866 L 885.125 767.022 L 887.042 765.104 L 887.042 763.183 L 901.421 748.777 L 903.34 748.777 L 905.258 746.857 L 909.091 746.857 L 911.01 744.936 L 916.762 744.936 L 918.679 743.015 Z" style="fill: rgb(223, 223, 223);"/>
    <path d="M 1315.57 743.015 L 1330.91 743.015 L 1332.82 744.936 L 1342.41 744.936 L 1344.33 746.857 L 1348.16 746.857 L 1350.08 748.777 L 1353.91 748.777 L 1355.83 750.698 L 1357.75 750.698 L 1361.58 754.539 L 1363.5 754.539 L 1369.25 760.301 L 1371.17 760.301 L 1377.88 767.022 L 1377.88 768.945 L 1383.63 774.705 L 1383.63 776.627 L 1385.55 778.548 L 1385.55 780.467 L 1387.47 782.389 L 1387.47 784.31 L 1389.38 786.229 L 1389.38 790.072 L 1391.3 791.993 L 1391.3 795.834 L 1393.22 797.755 L 1393.22 824.644 L 1391.3 826.562 L 1391.3 832.326 L 1389.38 834.245 L 1389.38 836.167 L 1387.47 838.088 L 1387.47 840.007 L 1385.55 841.929 L 1385.55 843.85 L 1383.63 845.769 L 1383.63 847.69 L 1379.8 851.533 L 1379.8 853.451 L 1367.34 865.937 L 1365.42 865.937 L 1359.67 871.698 L 1357.75 871.698 L 1355.83 873.619 L 1352 873.619 L 1350.08 875.54 L 1348.16 875.54 L 1346.25 877.46 L 1340.49 877.46 L 1338.58 879.381 L 1311.73 879.381 L 1309.82 877.46 L 1304.06 877.46 L 1302.15 875.54 L 1300.23 875.54 L 1298.31 873.619 L 1296.39 873.619 L 1294.48 871.698 L 1292.56 871.698 L 1290.64 869.778 L 1288.73 869.778 L 1284.89 865.937 L 1282.97 865.937 L 1270.51 853.451 L 1270.51 851.533 L 1266.67 847.69 L 1266.67 845.769 L 1264.76 843.85 L 1264.76 841.929 L 1262.84 840.007 L 1262.84 838.088 L 1260.92 836.167 L 1260.92 832.326 L 1259.01 830.406 L 1259.01 824.644 L 1257.09 822.723 L 1257.09 801.596 L 1259.01 799.673 L 1259.01 791.993 L 1260.92 790.072 L 1260.92 786.229 L 1262.84 784.31 L 1262.84 782.389 L 1264.76 780.467 L 1264.76 778.548 L 1266.67 776.627 L 1266.67 774.705 L 1270.51 770.866 L 1270.51 768.945 L 1279.14 760.301 L 1281.06 760.301 L 1286.81 754.539 L 1288.73 754.539 L 1290.64 752.618 L 1292.56 752.618 L 1296.39 748.777 L 1300.23 748.777 L 1302.15 746.857 L 1305.98 746.857 L 1307.9 744.936 L 1313.65 744.936 L 1315.57 743.015 Z M 1316.34 779.438 L 1314.53 781.256 L 1310.9 781.256 L 1307.27 784.89 L 1305.46 784.89 L 1303.64 788.524 L 1303.64 790.341 L 1300.02 793.975 L 1300.02 795.792 L 1298.2 797.609 L 1298.2 801.243 L 1294.57 803.06 L 1294.57 819.414 L 1298.2 821.231 L 1298.2 824.865 L 1300.02 826.682 L 1300.02 828.499 L 1301.83 830.316 L 1301.83 832.134 L 1307.27 839.402 L 1309.09 839.402 L 1310.9 841.219 L 1314.53 841.219 L 1316.34 843.036 L 1321.78 843.036 L 1323.6 844.853 L 1327.22 844.853 L 1329.04 843.036 L 1334.48 843.036 L 1336.3 841.219 L 1338.11 841.219 L 1339.92 839.402 L 1341.74 839.402 L 1347.18 833.951 L 1347.18 832.134 L 1350.81 828.499 L 1350.81 826.682 L 1352.62 824.865 L 1352.62 819.414 L 1354.43 817.597 L 1354.43 806.695 L 1352.62 804.877 L 1352.62 799.426 L 1350.81 797.609 L 1350.81 795.792 L 1348.99 793.975 L 1348.99 792.158 L 1338.11 781.256 L 1336.3 781.256 L 1334.48 779.438 L 1316.34 779.438 Z" style="fill: rgb(223, 223, 223);"/>
    <path d="M 1584 743.015 L 1601.25 743.015 L 1603.17 744.936 L 1608.92 744.936 L 1610.84 746.857 L 1614.67 746.857 L 1616.59 748.777 L 1618.51 748.777 L 1620.42 750.698 L 1622.34 750.698 L 1624.26 752.618 L 1626.18 752.618 L 1628.09 754.539 L 1630.01 754.539 L 1646.31 770.866 L 1646.31 772.784 L 1648.23 774.705 L 1648.23 776.627 L 1652.06 780.467 L 1652.06 784.31 L 1653.98 786.229 L 1653.98 788.151 L 1655.89 790.072 L 1655.89 797.755 L 1657.81 799.673 L 1657.81 815.04 L 1655.89 816.961 L 1655.89 818.882 L 1651.1 823.682 L 1568.66 823.682 L 1567.7 824.644 L 1567.7 830.406 L 1569.62 832.326 L 1569.62 834.245 L 1576.33 840.968 L 1578.24 840.968 L 1582.08 844.809 L 1585.91 844.809 L 1587.83 846.73 L 1603.17 846.73 L 1605.09 844.809 L 1608.92 844.809 L 1610.84 842.889 L 1612.76 842.889 L 1614.67 840.968 L 1616.59 840.968 L 1618.51 839.048 L 1620.42 839.048 L 1624.26 835.206 L 1630.01 835.206 L 1640.56 845.769 L 1640.56 847.69 L 1646.31 853.451 L 1646.31 857.295 L 1637.68 865.937 L 1635.76 865.937 L 1631.93 869.778 L 1630.01 869.778 L 1628.09 871.698 L 1626.18 871.698 L 1624.26 873.619 L 1622.34 873.619 L 1620.42 875.54 L 1616.59 875.54 L 1614.67 877.46 L 1610.84 877.46 L 1608.92 879.381 L 1587.83 879.381 L 1585.91 877.46 L 1578.24 877.46 L 1576.33 875.54 L 1572.49 875.54 L 1570.58 873.619 L 1568.66 873.619 L 1566.74 871.698 L 1564.82 871.698 L 1562.9 869.778 L 1560.99 869.778 L 1559.07 867.857 L 1557.15 867.857 L 1549.48 860.175 C 1547.88 860.494 1546.93 860.174 1546.61 859.213 L 1546.61 857.295 L 1538.94 849.612 L 1538.94 847.69 L 1535.1 843.85 L 1535.1 841.929 L 1533.19 840.007 L 1533.19 838.088 L 1531.27 836.167 L 1531.27 830.406 L 1529.35 828.485 L 1529.35 820.8 L 1527.43 818.882 L 1527.43 801.596 L 1529.35 799.673 L 1529.35 791.993 L 1531.27 790.072 L 1531.27 786.229 L 1533.19 784.31 L 1533.19 782.389 L 1535.1 780.467 L 1535.1 778.548 L 1537.02 776.627 L 1537.02 774.705 L 1538.94 772.784 L 1538.94 770.866 L 1553.32 756.46 L 1555.24 756.46 L 1559.07 752.618 L 1560.99 752.618 L 1562.9 750.698 L 1564.82 750.698 L 1566.74 748.777 L 1568.66 748.777 L 1570.58 746.857 L 1574.41 746.857 L 1576.33 744.936 L 1582.08 744.936 L 1584 743.015 Z M 1586.62 775.804 L 1584.81 777.621 L 1581.18 777.621 L 1577.55 781.256 L 1575.73 781.256 L 1572.11 786.707 L 1572.11 788.524 L 1568.48 792.158 L 1619.27 792.158 L 1613.83 786.707 L 1613.83 784.89 L 1610.2 781.256 L 1608.39 781.256 L 1604.76 777.621 L 1601.13 777.621 L 1599.32 775.804 L 1586.62 775.804 Z" style="fill: rgb(223, 223, 223);"/>
    <path d="M 1739.3 743.015 L 1748.88 743.015 L 1750.8 744.936 L 1758.47 744.936 L 1760.39 746.857 L 1764.22 746.857 L 1768.06 750.698 L 1769.98 750.698 L 1773.81 754.539 L 1775.73 754.539 L 1782.44 761.26 L 1782.44 765.104 L 1780.52 767.022 L 1780.52 768.945 L 1778.61 770.866 L 1778.61 772.784 L 1774.77 776.627 L 1774.77 778.548 L 1772.85 780.467 L 1772.85 782.389 L 1766.14 789.111 L 1762.31 789.111 L 1760.39 787.19 L 1758.47 787.19 L 1752.72 781.428 L 1750.8 781.428 L 1748.88 779.508 L 1731.63 779.508 L 1719.17 791.993 L 1719.17 870.739 L 1717.25 872.658 C 1717.57 874.259 1717.25 875.22 1716.29 875.54 L 1714.38 875.54 L 1712.46 877.46 L 1683.7 877.46 L 1678.9 872.658 L 1678.9 749.738 L 1681.78 746.857 L 1683.7 746.857 L 1685.62 744.936 L 1702.87 744.936 L 1704.79 746.857 C 1706.39 746.537 1707.34 746.857 1707.66 747.816 L 1707.66 749.738 L 1709.58 751.659 L 1709.58 753.578 L 1711.5 755.5 L 1711.5 757.421 L 1713.42 759.34 L 1713.42 763.183 L 1714.38 764.142 L 1733.55 744.936 L 1737.38 744.936 L 1739.3 743.015 Z" style="fill: rgb(223, 223, 223);"/>
    <path d="M 1827.5 743.015 L 1852.42 743.015 L 1854.34 744.936 L 1858.17 744.936 L 1860.09 746.857 L 1863.93 746.857 L 1865.84 748.777 L 1867.76 748.777 L 1873.51 754.539 L 1875.43 754.539 L 1884.06 763.183 L 1884.06 768.945 L 1881.18 771.825 L 1879.27 771.825 L 1865.84 785.269 L 1862.01 785.269 L 1860.09 783.349 L 1858.17 783.349 L 1852.42 777.587 L 1850.51 777.587 L 1848.59 775.666 L 1835.17 775.666 L 1830.37 780.467 L 1830.37 784.31 L 1835.17 789.111 L 1840.92 789.111 L 1842.84 791.031 L 1848.59 791.031 L 1850.51 792.952 L 1854.34 792.952 L 1856.26 794.873 L 1858.17 794.873 L 1860.09 796.793 L 1863.93 796.793 L 1867.76 800.635 L 1869.68 800.635 L 1871.6 802.555 L 1873.51 802.555 L 1884.06 813.118 L 1884.06 815.04 L 1887.89 818.882 L 1887.89 822.723 L 1889.81 824.644 L 1889.81 847.69 L 1887.89 849.612 L 1887.89 853.451 L 1885.98 855.374 L 1885.98 857.295 L 1882.14 861.134 L 1882.14 863.056 L 1877.35 867.857 L 1875.43 867.857 L 1871.6 871.698 L 1869.68 871.698 L 1867.76 873.619 L 1865.84 873.619 L 1863.93 875.54 L 1860.09 875.54 L 1858.17 877.46 L 1854.34 877.46 L 1852.42 879.381 L 1821.75 879.381 L 1819.83 877.46 L 1815.99 877.46 L 1814.08 875.54 L 1810.24 875.54 L 1808.33 873.619 L 1806.41 873.619 L 1804.49 871.698 L 1802.57 871.698 L 1798.74 867.857 L 1796.82 867.857 L 1790.11 861.134 L 1790.11 859.213 L 1788.19 857.295 L 1788.19 855.374 L 1786.27 853.451 L 1786.27 851.533 L 1804.49 833.286 L 1808.33 833.286 L 1810.24 835.206 L 1812.16 835.206 L 1817.91 840.968 L 1819.83 840.968 L 1821.75 842.889 L 1823.66 842.889 L 1825.58 844.809 L 1827.5 844.809 L 1829.41 846.73 L 1839 846.73 L 1840.92 844.809 L 1846.67 844.809 L 1849.55 841.929 L 1849.55 834.245 L 1844.75 829.444 L 1842.84 829.444 L 1840.92 827.524 L 1835.17 827.524 L 1833.25 825.603 L 1829.41 825.603 L 1827.5 823.682 L 1823.66 823.682 L 1821.75 821.762 L 1819.83 821.762 L 1817.91 819.841 L 1815.99 819.841 L 1814.08 817.92 L 1812.16 817.92 L 1810.24 816 L 1808.33 816 L 1797.78 805.437 L 1797.78 803.516 L 1795.86 801.596 L 1795.86 799.673 L 1793.94 797.755 L 1793.94 791.993 L 1792.03 790.072 L 1792.03 772.784 L 1793.94 770.866 L 1793.94 767.022 L 1795.86 765.104 L 1795.86 763.183 L 1808.33 750.698 L 1810.24 750.698 L 1814.08 746.857 L 1817.91 746.857 L 1819.83 744.936 L 1825.58 744.936 L 1827.5 743.015 Z" style="fill: rgb(223, 223, 223);"/>
    <path d="M 696.266 744.936 L 723.109 744.936 L 725.028 746.857 C 726.625 746.537 727.584 746.857 727.903 747.816 L 727.903 749.738 L 729.82 751.659 L 729.82 872.658 L 725.028 877.46 L 694.35 877.46 L 689.556 872.658 L 689.556 751.659 L 691.473 749.738 C 691.154 748.137 691.474 747.176 692.433 746.857 L 694.35 746.857 L 696.266 744.936 Z" style="fill: rgb(223, 223, 223);"/>
    <path d="M 1401.85 744.936 L 1430.61 744.936 L 1432.53 746.857 L 1434.44 746.857 L 1437.32 749.738 L 1437.32 753.578 L 1439.24 755.5 L 1439.24 759.34 L 1441.15 761.26 L 1441.15 765.104 L 1443.07 767.022 L 1443.07 770.866 L 1444.99 772.784 L 1444.99 776.627 L 1446.9 778.548 L 1446.9 782.389 L 1448.82 784.31 L 1448.82 788.151 L 1450.74 790.072 L 1450.74 793.911 L 1452.66 795.834 L 1452.66 799.673 L 1454.58 801.596 L 1454.58 805.437 L 1456.49 807.356 L 1456.49 811.199 L 1458.41 813.118 L 1458.41 816.961 L 1459.37 817.92 C 1460.97 818.24 1461.92 817.92 1462.24 816.961 L 1462.24 813.118 L 1464.16 811.199 L 1464.16 805.437 L 1466.08 803.516 L 1466.08 799.673 L 1468 797.755 L 1468 793.911 L 1469.91 791.993 L 1469.91 788.151 L 1471.83 786.229 L 1471.83 782.389 L 1473.75 780.467 L 1473.75 774.705 L 1475.66 772.784 L 1475.66 768.945 L 1477.58 767.022 L 1477.58 763.183 L 1479.5 761.26 L 1479.5 757.421 L 1481.42 755.5 L 1481.42 751.659 L 1488.13 744.936 L 1518.81 744.936 L 1520.72 746.857 L 1522.64 746.857 L 1525.52 749.738 L 1523.6 751.659 L 1523.6 755.5 L 1521.68 757.421 L 1521.68 761.26 L 1519.76 763.183 L 1519.76 765.104 L 1517.85 767.022 L 1517.85 768.945 L 1515.93 770.866 L 1515.93 774.705 L 1514.01 776.627 L 1514.01 778.548 L 1512.1 780.467 L 1512.1 782.389 L 1510.18 784.31 L 1510.18 788.151 L 1508.26 790.072 L 1508.26 791.993 L 1506.34 793.911 L 1506.34 795.834 L 1504.42 797.755 L 1504.42 801.596 L 1502.51 803.516 L 1502.51 805.437 L 1500.59 807.356 L 1500.59 811.199 L 1498.67 813.118 L 1498.67 815.04 L 1496.76 816.961 L 1496.76 820.8 L 1494.84 822.723 L 1494.84 824.644 L 1492.92 826.562 L 1492.92 830.406 L 1491 832.326 L 1491 834.245 L 1489.09 836.167 L 1489.09 838.088 L 1487.17 840.007 L 1487.17 843.85 L 1485.25 845.769 L 1485.25 847.69 L 1483.34 849.612 L 1483.34 851.533 L 1481.42 853.451 L 1481.42 857.295 L 1479.5 859.213 L 1479.5 861.134 L 1477.58 863.056 L 1477.58 864.977 L 1475.66 866.896 L 1475.66 870.739 L 1473.75 872.658 C 1474.07 874.259 1473.75 875.22 1472.79 875.54 L 1470.87 875.54 L 1468.95 877.46 L 1449.78 877.46 L 1444.99 872.658 L 1444.99 870.739 L 1443.07 868.818 L 1443.07 864.977 L 1441.15 863.056 L 1441.15 861.134 L 1439.24 859.213 L 1439.24 857.295 L 1437.32 855.374 L 1437.32 851.533 L 1435.4 849.612 L 1435.4 847.69 L 1433.48 845.769 L 1433.48 841.929 L 1431.57 840.007 L 1431.57 838.088 L 1429.65 836.167 L 1429.65 832.326 L 1427.73 830.406 L 1427.73 828.485 L 1425.82 826.562 L 1425.82 822.723 L 1423.9 820.8 L 1423.9 818.882 L 1421.98 816.961 L 1421.98 813.118 L 1420.06 811.199 L 1420.06 809.278 L 1418.14 807.356 L 1418.14 803.516 L 1416.23 801.596 L 1416.23 799.673 L 1414.31 797.755 L 1414.31 793.911 L 1412.39 791.993 L 1412.39 790.072 L 1410.48 788.151 L 1410.48 786.229 L 1408.56 784.31 L 1408.56 780.467 L 1406.64 778.548 L 1406.64 776.627 L 1404.72 774.705 L 1404.72 772.784 L 1402.81 770.866 L 1402.81 767.022 L 1400.89 765.104 L 1400.89 763.183 L 1398.97 761.26 L 1398.97 757.421 L 1397.05 755.5 L 1397.05 747.816 C 1397.37 746.857 1398.33 746.537 1399.93 746.857 L 1401.85 744.936 Z" style="fill: rgb(223, 223, 223);"/>
  </g>
</svg>
